<?xml version="1.0" encoding="UTF-8" standalone="no"?>
<svg
   xmlns:dc="http://purl.org/dc/elements/1.1/"
   xmlns:cc="http://creativecommons.org/ns#"
   xmlns:rdf="http://www.w3.org/1999/02/22-rdf-syntax-ns#"
   xmlns:svg="http://www.w3.org/2000/svg"
   xmlns="http://www.w3.org/2000/svg"
   viewBox="0 0 2133.3333 2133.3333"
   height="2133.3333"
   width="2133.3333"
   xml:space="preserve"
   id="svg2"
   version="1.1"><metadata
     id="metadata8"><rdf:RDF><cc:Work
         rdf:about=""><dc:format>image/svg+xml</dc:format><dc:type
           rdf:resource="http://purl.org/dc/dcmitype/StillImage" /></cc:Work></rdf:RDF></metadata><defs
     id="defs6" /><g
     transform="matrix(1.3333333,0,0,-1.3333333,0,2133.3333)"
     id="g10"><g
       transform="translate(832.2695,1474)"
       id="g12"><path
         id="path14"
         style="fill:#b2b2b2;fill-opacity:1;fill-rule:nonzero;stroke:none"
         d="m 0,0 -638.637,-224.75 100.918,-836.727 538.391,-295.91 541.18,299.922 100.878,836.688 z" /></g><g
       transform="translate(1411.3008,1204.8711)"
       id="g16"><path
         id="path18"
         style="fill:#b52e31;fill-opacity:1;fill-rule:nonzero;stroke:none"
         d="m 0,0 -580.523,197.961 v -1215.52 l 486.511,269.243 z" /></g><g
       transform="translate(265.2969,1201.2969)"
       id="g20"><path
         id="path22"
         style="fill:#e23237;fill-opacity:1;fill-rule:nonzero;stroke:none"
         d="m 0,0 86.477,-748.312 479,-265.676 v 1215.55 z" /></g><g
       transform="translate(1074,1320)"
       id="g24"><path
         id="path26"
         style="fill:#f2f2f2;fill-opacity:1;fill-rule:nonzero;stroke:none"
         d="m 0,0 40,-14 297.949,-527 -22.633,-54.697 -7.545,-49.039 L 304,-722.066 213.968,-548.565 42.726,-645.192 11.604,-991.295 -144,-1079 m 303.665,650.711 -77.33,173.523 -5.659,-216.903 z" /></g><g
       transform="translate(1078.0605,1390.5898)"
       id="g28"><path
         id="path30"
         style="fill:#b2b2b2;fill-opacity:1;fill-rule:nonzero;stroke:none"
         d="m 0,0 337.939,-618.59 -24.632,-54.697 -7.545,-49.039 -3.772,-77.33 -92.083,180.501 -75.993,-43.816 -16.975,143.345 39.609,20.748 L 80.16,-332.9 m 75.444,-165.978 -75.444,167.864" /></g><g
       transform="translate(699,1285)"
       id="g32"><path
         id="path34"
         style="fill:#ffde17;fill-opacity:1;fill-rule:nonzero;stroke:none"
         d="m 0,0 -334,-129 34,-227 148,105 -28,-230 181,54 -11,-245 144,90 7,-240 146,96 94,-183 15,378 -142,-80 6,215 -133,-64 6,216 -148,-65" /></g><g
       transform="translate(623,1182)"
       id="g36"><path
         id="path38"
         style="fill:#f7941e;fill-opacity:1;fill-rule:nonzero;stroke:none"
         d="m 0,0 -169,-91 -56,-163 148,105 -28,-230 181,54 -11,-245 144,90 7,-240 146,96 94,-183 -12,335 -154,-104 6,215 -169,-73 24,207 -166,-74" /></g></g></svg>